<?xml version="1.0" encoding="UTF-8"?>
<svg version="1.1" xmlns="http://www.w3.org/2000/svg" width="57" height="48">
<path d="M0 0 C18.81 0 37.62 0 57 0 C57 15.84 57 31.68 57 48 C38.19 48 19.38 48 0 48 C0 32.16 0 16.32 0 0 Z " fill="#FCFBFC" transform="translate(0,0)"/>
<path d="M0 0 C1.39456452 0.00667256 2.78911118 0.01863093 4.18359375 0.03515625 C4.89451172 0.03966797 5.60542969 0.04417969 6.33789062 0.04882812 C8.09899388 0.06064761 9.86005411 0.07858362 11.62109375 0.09765625 C12.32074818 1.36183871 13.00544138 2.63431027 13.68359375 3.91015625 C14.06644531 4.61785156 14.44929688 5.32554688 14.84375 6.0546875 C15.62109375 8.09765625 15.62109375 8.09765625 14.62109375 11.09765625 C13.85796875 11.55140625 13.09484375 12.00515625 12.30859375 12.47265625 C7.49080559 15.38573746 5.09056246 19.78243373 2.640625 24.73046875 C2.11662109 25.78363281 1.59261719 26.83679688 1.05273438 27.921875 C0.51841797 29.01113281 -0.01589844 30.10039063 -0.56640625 31.22265625 C-1.3852832 32.86814453 -1.3852832 32.86814453 -2.22070312 34.546875 C-5.07064133 40.20860131 -5.07064133 40.20860131 -7.37890625 46.09765625 C-11.99890625 46.09765625 -16.61890625 46.09765625 -21.37890625 46.09765625 C-20.68677867 42.63701837 -20.08402165 40.0481461 -18.8125 36.87402344 C-18.49547119 36.07679871 -18.17844238 35.27957397 -17.85180664 34.45819092 C-17.51012451 33.61218323 -17.16844238 32.76617554 -16.81640625 31.89453125 C-16.46505615 31.01613586 -16.11370605 30.13774048 -15.75170898 29.23272705 C-15.01068492 27.38284103 -14.26755675 25.53379664 -13.52246094 23.68554688 C-12.37817492 20.84584135 -11.24132835 18.0032413 -10.10546875 15.16015625 C-9.38455136 13.36310597 -8.66321193 11.56622492 -7.94140625 9.76953125 C-7.59972412 8.91542664 -7.25804199 8.06132202 -6.90600586 7.18133545 C-6.58897705 6.39671936 -6.27194824 5.61210327 -5.9453125 4.80371094 C-5.5268103 3.76376984 -5.5268103 3.76376984 -5.09985352 2.70281982 C-3.76949201 -0.25918299 -3.58654473 0.10365736 0 0 Z " fill="#7A2673" transform="translate(22.37890625,1.90234375)"/>
<path d="M0 0 C0.66 0 1.32 0 2 0 C3.42842911 3.66452852 4.85247676 7.33072569 6.27246094 10.99853516 C6.99441847 12.86060415 7.71985238 14.72132407 8.4453125 16.58203125 C8.89648438 17.74863281 9.34765625 18.91523437 9.8125 20.1171875 C10.23144531 21.19597168 10.65039062 22.27475586 11.08203125 23.38623047 C12 26 12 26 12 28 C3.09 28 -5.82 28 -15 28 C-13.68 25.36 -12.36 22.72 -11 20 C-7.765625 19 -7.765625 19 -4.25 19 C-3.07953125 18.979375 -1.9090625 18.95875 -0.703125 18.9375 C0.18890625 18.958125 1.0809375 18.97875 2 19 C2.99 16.69 3.98 14.38 5 12 C1.04 12 -2.92 12 -7 12 C-5.24386546 7.60966365 -3.39668393 3.39668393 0 0 Z " fill="#52276C" transform="translate(40,20)"/>
<path d="M0 0 C0.66 0 1.32 0 2 0 C2.69906942 1.59915881 3.38389468 3.20455045 4.0625 4.8125 C4.44535156 5.70582031 4.82820313 6.59914063 5.22265625 7.51953125 C6 10 6 10 5 13 C1.04 12.67 -2.92 12.34 -7 12 C-5.24386546 7.60966365 -3.39668393 3.39668393 0 0 Z " fill="#5E3476" transform="translate(40,20)"/>
</svg>
